<svg width="441" height="735" viewBox="0 0 441 735" fill="none" xmlns="http://www.w3.org/2000/svg">
<path d="M108 735C98 735 93 731.333 93 724C93 716.667 97.3333 712.667 106 712L151 705C164.333 703 173.333 699.667 178 695C182.667 689.667 185 680 185 666V66C185 56.6666 183 50 179 46C175 42 166.667 39.9999 154 39.9999C129.333 39.9999 105 50.6666 81 72C57 93.3333 41.3333 127.667 34 175L29 208C27.6667 216.667 23 221 15 221C5 221 0.666667 215.333 2 204L11 23C12.3333 7.66665 18.3333 -1.43051e-05 29 -1.43051e-05C33.6667 -1.43051e-05 38 1.33332 42 3.99999C46 5.99997 52.6667 8.33329 62 11C72 13.6666 87.6667 15 109 15H332C353.333 15 368.667 13.6666 378 11C388 8.33329 395 5.99997 399 3.99999C403.667 1.33332 408 -1.43051e-05 412 -1.43051e-05C422.667 -1.43051e-05 428.667 7.66665 430 23L439 204C440.333 215.333 436 221 426 221C418 221 413.333 216.667 412 208L407 175C400.333 127.667 385 93.3333 361 72C337 50.6666 312.333 39.9999 287 39.9999C274.333 39.9999 266 42 262 46C258 50 256 56.6666 256 66V666C256 680 258.333 689.667 263 695C268.333 699.667 277.333 703 290 705L335 712C343.667 712.667 348 716.667 348 724C348 731.333 343 735 333 735H108Z" fill="white"/>
</svg>
